<svg width="28" height="28" viewBox="0 0 28 28" fill="none" xmlns="http://www.w3.org/2000/svg">
<path fill-rule="evenodd" clip-rule="evenodd" d="M5.426 13.283L5.595 13.116L12.619 6.182C12.883 5.913 12.88 5.487 12.613 5.214C12.481 5.079 12.304 5.003 12.114 5C11.905 5.008 11.738 5.073 11.608 5.196L3.207 13.489C2.931 13.762 2.931 14.207 3.207 14.481L11.614 22.779C11.767 22.925 11.917 22.987 12.151 23C12.334 22.996 12.51 22.92 12.642 22.785C12.774 22.651 12.845 22.473 12.842 22.285C12.838 22.098 12.761 21.923 12.625 21.793L5.426 14.686H24.289C24.681 14.686 24.999 14.372 24.999 13.985C24.999 13.598 24.681 13.283 24.289 13.283H5.426Z" fill="#979595"/>
</svg>
