<svg width="14" height="14" viewBox="0 0 14 14" fill="none" xmlns="http://www.w3.org/2000/svg">
<path fill-rule="evenodd" clip-rule="evenodd" d="M11.6439 0.161C11.5409 0.058 11.4019 0 11.2559 0C11.1109 0 10.9709 0.058 10.8679 0.161L4.8319 6.198C4.7279 6.301 4.6709 6.44 4.6709 6.585V8.781C4.6709 9.084 4.9159 9.329 5.2199 9.329H7.4149C7.5599 9.329 7.6999 9.272 7.8029 9.169L13.8389 3.132C14.0539 2.918 14.0539 2.57 13.8389 2.356L11.6439 0.161Z" fill="#979595"/>
<path fill-rule="evenodd" clip-rule="evenodd" d="M13.364 6.364C13.012 6.364 12.728 6.649 12.728 7.001V12.728H1.273V1.273H7C7.352 1.273 7.637 0.988 7.637 0.637C7.637 0.285 7.352 0 7 0H1.09C0.489 0 0 0.489 0 1.09V12.911C0 13.512 0.489 14 1.09 14H12.91C13.512 14 14 13.512 14 12.911V7.001C14 6.649 13.716 6.364 13.364 6.364Z" fill="#979595"/>
</svg>
