<svg width="12" height="12" viewBox="0 0 12 12" fill="none" xmlns="http://www.w3.org/2000/svg">
<path fill-rule="evenodd" clip-rule="evenodd" d="M6.65175 5.34755V0.652449C6.65175 0.291385 6.36039 0 5.99937 0C5.63961 0 5.34699 0.291385 5.34699 0.652449V5.34755H0.65238C0.291354 5.34755 0 5.6402 0 6C0 6.36106 0.291354 6.65245 0.65238 6.65245H5.34699V11.3488C5.34699 11.7086 5.63961 12 5.99937 12C6.36039 12 6.65175 11.7086 6.65175 11.3488V6.65245H11.3476C11.7074 6.65245 12 6.36106 12 6C12 5.6402 11.7074 5.34755 11.3476 5.34755H6.65175Z" fill="#979595"/>
</svg>
