<svg width="173" height="65" viewBox="0 0 173 65" fill="none" xmlns="http://www.w3.org/2000/svg">
<path fill-rule="evenodd" clip-rule="evenodd" d="M17.2629 0.351562V4.78273H5.01708V9.52875H17.2629V13.9569H5.01708V16.3141C4.99998 16.8941 5.06737 17.474 5.21723 18.0346C5.3319 18.4429 5.55519 18.8136 5.86297 19.102C6.18583 19.3813 6.5771 19.5692 6.99652 19.6434C7.55776 19.749 8.12705 19.7967 8.69836 19.7876H17.2649V24.2147H8.66516C7.40488 24.2289 6.1446 24.1263 4.90141 23.911C3.92678 23.7536 3.00042 23.3727 2.19376 22.7979C1.45046 22.2302 0.882176 21.4613 0.555287 20.5798C0.152961 19.425 -0.03412 18.2042 0.0051067 16.9804V0.351562H17.2629Z" fill="white"/>
<path fill-rule="evenodd" clip-rule="evenodd" d="M28.2238 20.481C28.7318 20.4242 29.2327 20.3175 29.7195 20.1621C30.2616 19.9976 30.7846 19.7732 31.2785 19.4918V16.5638C30.9003 16.6267 30.3763 16.706 29.7034 16.8024C29.0345 16.8979 28.3717 17.036 27.7199 17.2168C27.1325 17.3712 26.5662 17.6017 26.0352 17.9014C25.6218 18.0892 25.3482 18.4955 25.3261 18.9525C25.3029 19.311 25.3914 19.6675 25.5785 19.9722C25.7405 20.2017 25.9738 20.3703 26.2404 20.4506C26.5421 20.5389 26.8559 20.5765 27.1697 20.5613C27.5167 20.5501 27.8688 20.5237 28.2238 20.481ZM31.2785 24.1424V23.1917C30.4849 23.7117 29.6018 24.0784 28.6754 24.2734C27.7581 24.4653 26.8237 24.5618 25.8883 24.5608C25.1782 24.5628 24.4711 24.4552 23.7932 24.2409C23.1555 24.0428 22.5661 23.7128 22.0612 23.2699C21.5533 22.8149 21.155 22.2482 20.8955 21.6135C20.5947 20.8497 20.4499 20.0321 20.471 19.2085C20.4288 18.2233 20.7054 17.2503 21.2576 16.4378C21.8369 15.6721 22.6064 15.0728 23.4864 14.7001C24.5798 14.2238 25.7274 13.8866 26.9032 13.6957C28.2258 13.4631 29.6853 13.261 31.2805 13.0893V12.3266C31.2986 11.9955 31.2292 11.6654 31.0803 11.3699C30.9576 11.1505 30.7776 10.9697 30.5603 10.8448C30.3411 10.727 30.0997 10.6579 29.8522 10.6417C29.5887 10.6214 29.3222 10.6112 29.0506 10.6112C28.6352 10.6082 28.2208 10.6305 27.8074 10.6752C27.4815 10.7046 27.1647 10.8021 26.878 10.9616C26.6226 11.1139 26.4194 11.3414 26.2957 11.6146C26.1448 11.9823 26.0764 12.3794 26.0955 12.7765H21.2002C21.156 11.6471 21.4114 10.5249 21.9395 9.52854C22.3971 8.71807 23.0399 8.02948 23.8143 7.52167C24.5848 7.02706 25.4387 6.68174 26.3339 6.50198C27.224 6.3151 28.1313 6.21862 29.0416 6.21557C30.3893 6.16174 31.7341 6.36284 33.0095 6.80464C33.8614 7.1144 34.6128 7.6537 35.182 8.36464C35.6628 9.00854 35.9766 9.76417 36.0953 10.5624C36.2221 11.3902 36.2854 12.225 36.2844 13.0619V24.1424H31.2785Z" fill="white"/>
<path fill-rule="evenodd" clip-rule="evenodd" d="M41.4824 0H46.4893V6.52742H50.8666V10.9251H46.4903V18.983C46.4602 19.2329 46.603 19.4695 46.8363 19.5569C47.1944 19.6574 47.5656 19.7011 47.9377 19.6838H50.7057V24.1089H48.3803C47.4388 24.113 46.4974 24.0652 45.562 23.9657C44.8066 23.8946 44.0693 23.6884 43.3864 23.3573C42.793 23.0537 42.3041 22.5763 41.9843 21.9873C41.6162 21.2306 41.4442 20.3927 41.4834 19.5508V10.9251H38.9316V6.52742H41.4824V0Z" fill="white"/>
<path fill-rule="evenodd" clip-rule="evenodd" d="M67.714 19.9707H72.4373C73.3415 20.0783 74.2397 19.7279 74.8361 19.0322C75.3018 18.3213 75.5332 17.4793 75.498 16.6272C75.497 16.3185 75.4547 16.0128 75.3722 15.7162C75.2867 15.4054 75.1369 15.118 74.9317 14.8712C74.6953 14.598 74.3986 14.3847 74.0657 14.2507C73.6292 14.079 73.1635 13.9978 72.6958 14.012H67.72L67.714 19.9707ZM67.714 9.58691H72.0601C72.7581 9.66308 73.4531 9.42339 73.9621 8.93488C74.3644 8.3905 74.5595 7.71816 74.5133 7.03972C74.5545 6.36433 74.3534 5.69605 73.946 5.1598C73.4451 4.66621 72.7541 4.42042 72.0571 4.4905H67.715L67.714 9.58691ZM62.707 0.319331H73.0689C74.1492 0.279721 75.2234 0.481831 76.2181 0.908393C76.9695 1.24863 77.6323 1.76152 78.1543 2.40542C78.614 2.98433 78.9419 3.65769 79.1149 4.3798C79.2758 5.03183 79.3603 5.6991 79.3663 6.37042C79.3995 7.35253 79.1883 8.32753 78.7538 9.20605C78.3766 9.93425 77.8174 10.5497 77.1314 10.9885C77.5468 11.1388 77.931 11.3653 78.265 11.6578C78.6673 12.0061 79.0123 12.4175 79.2879 12.8735C79.6128 13.4087 79.8672 13.9835 80.0422 14.5858C80.2525 15.3201 80.354 16.0828 80.343 16.8476C80.3651 17.9221 80.167 18.9916 79.7606 19.9859C79.4045 20.839 78.8855 21.6139 78.2328 22.2639C77.6051 22.8774 76.8608 23.3537 76.0441 23.6655C75.2244 23.9814 74.3544 24.1428 73.4763 24.1418H62.707V0.319331Z" fill="white"/>
<path fill-rule="evenodd" clip-rule="evenodd" d="M91.0531 10.4797C90.2636 10.4117 89.474 10.6199 88.8172 11.0688C88.3123 11.537 87.9703 12.1565 87.8416 12.837H94.2034C94.1229 12.1047 93.7175 11.4476 93.102 11.0536C92.4864 10.6696 91.7763 10.4706 91.0531 10.4797ZM90.9274 6.21207C91.9352 6.21207 92.939 6.36137 93.9036 6.65691C94.8571 6.9423 95.7473 7.41254 96.5207 8.04426C97.3053 8.69019 97.944 9.49965 98.3946 10.4168C98.9015 11.4771 99.1489 12.6461 99.1188 13.8242V16.7857H87.6203C87.6666 17.7455 87.9784 18.6728 88.5205 19.4619C89.1884 20.1322 90.1218 20.4593 91.0562 20.3506C91.8186 20.375 92.5739 20.1942 93.2448 19.8275C93.8855 19.3979 94.2335 18.6413 94.146 17.8694H98.9961C99.0363 18.9856 98.7929 20.0936 98.287 21.0859C97.8424 21.9065 97.2047 22.6032 96.4292 23.1121C95.6326 23.6209 94.7495 23.9774 93.8252 24.1632C92.8727 24.3633 91.9021 24.4659 90.9274 24.4659C89.82 24.473 88.7146 24.345 87.6374 24.085C86.6527 23.8474 85.7394 23.3721 84.976 22.6997C84.1613 21.9421 83.5488 20.9894 83.1967 19.9281C82.723 18.4646 82.5047 16.9289 82.551 15.3893C82.5168 13.9664 82.7361 12.5475 83.1967 11.2018C83.5729 10.1293 84.1804 9.15535 84.976 8.35097C85.7284 7.61262 86.6386 7.05808 87.6374 6.73105C88.6995 6.38066 89.81 6.20597 90.9274 6.21207Z" fill="white"/>
<path fill-rule="evenodd" clip-rule="evenodd" d="M103.554 0H108.56V6.52742H112.939V10.9251H108.559V18.983C108.528 19.2329 108.673 19.4705 108.908 19.5569C109.266 19.6574 109.638 19.7011 110.009 19.6838H112.779V24.1089H110.451C109.508 24.113 108.567 24.0652 107.629 23.9657C106.875 23.8936 106.14 23.6884 105.457 23.3573C104.863 23.0537 104.375 22.5763 104.056 21.9873C103.687 21.2306 103.514 20.3927 103.555 19.5508V10.9251H101.002V6.52742H103.554V0Z" fill="white"/>
<path fill-rule="evenodd" clip-rule="evenodd" d="M117.636 0H122.642V6.52742H127.021V10.9251H122.641V18.983C122.61 19.2329 122.755 19.4705 122.99 19.5569C123.348 19.6574 123.72 19.7011 124.091 19.6838H126.861V24.1089H124.533C123.59 24.113 122.649 24.0652 121.711 23.9657C120.957 23.8936 120.222 23.6884 119.539 23.3573C118.945 23.0537 118.457 22.5763 118.138 21.9873C117.77 21.2306 117.597 20.3927 117.637 19.5508V10.9251H115.084V6.52742H117.636V0Z" fill="white"/>
<path fill-rule="evenodd" clip-rule="evenodd" d="M138.291 10.4798C137.499 10.4107 136.709 10.6189 136.052 11.0688C135.547 11.537 135.205 12.1566 135.076 12.837H141.437C141.357 12.1048 140.952 11.4477 140.336 11.0536C139.722 10.6697 139.013 10.4706 138.291 10.4798ZM138.163 6.21212C139.171 6.21212 140.174 6.36142 141.139 6.65697C142.094 6.94134 142.983 7.41157 143.757 8.04431C144.542 8.69025 145.18 9.4997 145.631 10.4168C146.138 11.4771 146.385 12.6461 146.355 13.8242V16.7858H134.855C134.903 17.7456 135.215 18.6718 135.756 19.462C136.426 20.1323 137.359 20.4583 138.295 20.3506C139.057 20.375 139.812 20.1942 140.483 19.8276C141.122 19.397 141.468 18.6403 141.378 17.8695H146.228C146.27 18.9856 146.025 20.0937 145.519 21.0859C145.075 21.9066 144.436 22.6033 143.661 23.1121C142.865 23.6209 141.982 23.9774 141.058 24.1633C140.105 24.3634 139.133 24.4659 138.161 24.4659C137.052 24.4731 135.947 24.3451 134.87 24.0851C133.885 23.8474 132.971 23.3721 132.208 22.6998C131.396 21.9411 130.783 20.9885 130.429 19.9281C129.955 18.4646 129.737 16.929 129.783 15.3893C129.749 13.9664 129.968 12.5476 130.429 11.2019C130.807 10.1304 131.415 9.15642 132.208 8.35103C132.961 7.61165 133.871 7.05814 134.87 6.73111C135.933 6.38072 137.044 6.20501 138.163 6.21212Z" fill="white"/>
<path fill-rule="evenodd" clip-rule="evenodd" d="M157.816 10.9245C156.767 10.8716 155.749 11.2982 155.045 12.0873C154.317 13.0461 153.961 14.2415 154.044 15.448V24.1428H149.037V6.21094H154.044V7.57797C155.202 6.78883 156.586 6.40898 157.981 6.49836H162.137V10.9245H157.816Z" fill="white"/>
<path fill-rule="evenodd" clip-rule="evenodd" d="M164.331 22.0669C164.34 19.8228 166.149 18.0122 168.37 18.0215C170.593 18.0308 172.386 19.8568 172.377 22.0995C172.367 24.3452 170.558 26.1557 168.337 26.1464C167.275 26.1418 166.26 25.7128 165.51 24.957C164.739 24.1996 164.312 23.1526 164.331 22.0669Z" fill="white"/>
<path fill-rule="evenodd" clip-rule="evenodd" d="M5.04109 58.1914H9.7654C10.6676 58.298 11.5638 57.9466 12.1592 57.2519C12.6249 56.541 12.8563 55.699 12.8211 54.8469C12.8191 54.5392 12.7768 54.2325 12.6943 53.9359C12.6088 53.6251 12.459 53.3367 12.2538 53.0899C12.0174 52.8177 11.7207 52.6054 11.3878 52.4703C10.9523 52.2977 10.4866 52.2164 10.0179 52.2317H5.0421L5.04109 58.1914ZM5.04109 47.8086H9.38721C10.0852 47.8838 10.7813 47.6441 11.2892 47.1556C11.6915 46.6112 11.8867 45.9389 11.8404 45.2604C11.8826 44.585 11.6815 43.9168 11.2741 43.3805C10.7722 42.8869 10.0812 42.6411 9.3842 42.7112H5.0421L5.04109 47.8086ZM0.0351562 38.54H10.3971C11.4763 38.5004 12.5525 38.7025 13.5473 39.1291C14.2986 39.4693 14.9604 39.9822 15.4824 40.6261C15.9421 41.205 16.27 41.8794 16.443 42.6005C16.6039 43.2525 16.6884 43.9198 16.6955 44.5911C16.7276 45.5732 16.5164 46.5482 16.0819 47.4268C15.7057 48.155 15.1455 48.7704 14.4595 49.2102C14.8759 49.3575 15.2612 49.585 15.5931 49.8785C15.9964 50.2268 16.3414 50.6371 16.616 51.0952C16.9429 51.6325 17.1964 52.2103 17.3724 52.8157C17.5826 53.551 17.6832 54.3127 17.6731 55.0775C17.6952 56.153 17.4961 57.2214 17.0897 58.2157C16.7337 59.0699 16.2147 59.8438 15.5619 60.4938C14.9353 61.1072 14.191 61.5835 13.3733 61.8923C12.5545 62.2102 11.6835 62.3727 10.8064 62.3717H0.0351562V38.54Z" fill="white"/>
<path fill-rule="evenodd" clip-rule="evenodd" d="M28.3813 48.7006C27.5907 48.6326 26.8021 48.8408 26.1453 49.2897C25.6404 49.7579 25.2984 50.3774 25.1697 51.0579H31.5254C31.446 50.3246 31.0416 49.6675 30.4251 49.2714C29.8105 48.8895 29.1024 48.6915 28.3813 48.7006ZM28.2555 44.433C29.2634 44.433 30.2662 44.5823 31.2307 44.8778C32.1832 45.1632 33.0714 45.6324 33.8449 46.2641C34.6284 46.9101 35.2681 47.7195 35.7187 48.6366C36.2246 49.6959 36.473 50.8639 36.4429 52.041V55.0056H24.9474C24.9937 55.9654 25.3055 56.8916 25.8486 57.6798C26.5155 58.3521 27.4489 58.6802 28.3843 58.5715C29.1467 58.5948 29.9021 58.4151 30.5729 58.0484C31.2136 57.6188 31.5627 56.8622 31.4741 56.0893H36.3232C36.3644 57.2055 36.121 58.3135 35.6151 59.3058C35.1705 60.1254 34.5318 60.8191 33.7563 61.3269C32.9607 61.8377 32.0786 62.1942 31.1533 62.378C30.2008 62.5802 29.2292 62.6817 28.2555 62.6817C27.1481 62.6878 26.0428 62.5598 24.9655 62.2998C23.9808 62.0622 23.0665 61.5869 22.3041 60.9145C21.4894 60.1559 20.8779 59.2032 20.5249 58.1429C20.0511 56.6794 19.8329 55.1437 19.8791 53.6051C19.8449 52.1812 20.0632 50.7623 20.5249 49.4166C20.902 48.3441 21.5095 47.3691 22.3041 46.5637C23.0575 45.8244 23.9668 45.2698 24.9655 44.9428C26.0277 44.5965 27.1381 44.4238 28.2555 44.433Z" fill="white"/>
<path fill-rule="evenodd" clip-rule="evenodd" d="M52.9434 58.1914H57.6667C58.57 58.298 59.4651 57.9466 60.0606 57.2519C60.5263 56.541 60.7586 55.699 60.7224 54.8469C60.7214 54.5392 60.6792 54.2325 60.5967 53.9359C60.5112 53.6251 60.3613 53.3367 60.1561 53.0899C59.9198 52.8177 59.6231 52.6054 59.2901 52.4703C58.8536 52.2977 58.3879 52.2164 57.9202 52.2317H52.9444L52.9434 58.1914ZM52.9434 47.8086H57.2906C57.9886 47.8838 58.6846 47.6441 59.1926 47.1556C59.5949 46.6112 59.79 45.9389 59.7437 45.2604C59.785 44.585 59.5838 43.9168 59.1765 43.3805C58.6756 42.8869 57.9846 42.6411 57.2876 42.7112H52.9444L52.9434 47.8086ZM47.9375 38.54H58.2984C59.3786 38.5004 60.4538 38.7025 61.4486 39.1291C62.1999 39.4693 62.8628 39.9822 63.3848 40.6261C63.8444 41.205 64.1723 41.8794 64.3453 42.6005C64.5063 43.2525 64.5908 43.9198 64.5968 44.5911C64.63 45.5732 64.4188 46.5482 63.9843 47.4268C63.6071 48.155 63.0478 48.7704 62.3619 49.2102C62.7783 49.3575 63.1635 49.585 63.4954 49.8785C63.8978 50.2268 64.2428 50.6371 64.5183 51.0952C64.8442 51.6325 65.0987 52.2103 65.2747 52.8157C65.4849 53.551 65.5855 54.3127 65.5744 55.0775C65.5966 56.153 65.3984 57.2214 64.9921 58.2157C64.636 59.0699 64.117 59.8438 63.4643 60.4938C62.8376 61.1072 62.0923 61.5835 61.2756 61.8923C60.4559 62.2102 59.5858 62.3727 58.7078 62.3717H47.9375V38.54Z" fill="white"/>
<path fill-rule="evenodd" clip-rule="evenodd" d="M76.2817 48.7006C75.4921 48.6326 74.7025 48.8408 74.0457 49.2897C73.5408 49.7579 73.1988 50.3774 73.0701 51.0579H79.4319C79.3514 50.3246 78.9461 49.6675 78.3305 49.2714C77.7149 48.8895 77.0048 48.6905 76.2817 48.7006ZM76.1559 44.433C77.1638 44.433 78.1676 44.5823 79.1321 44.8778C80.0846 45.1632 80.9728 45.6324 81.7462 46.2641C82.5308 46.9101 83.1695 47.7195 83.6201 48.6366C84.126 49.6959 84.3744 50.8639 84.3443 52.041V55.0056H72.8488C72.8941 55.9654 73.2059 56.8916 73.75 57.6798C74.4159 58.3521 75.3493 58.6802 76.2847 58.5715C77.0471 58.5948 77.8025 58.4151 78.4733 58.0484C79.114 57.6188 79.463 56.8622 79.3745 56.0893H84.2246C84.2648 57.2055 84.0214 58.3135 83.5155 59.3058C83.0709 60.1254 82.4322 60.8191 81.6577 61.3269C80.8621 61.8377 79.979 62.1942 79.0537 62.378C78.1012 62.5802 77.1306 62.6817 76.1559 62.6817C75.0485 62.6878 73.9431 62.5598 72.8659 62.2998C71.8812 62.0622 70.9679 61.5869 70.2045 60.9145C69.3898 60.1559 68.7783 59.2032 68.4252 58.1429C67.9515 56.6794 67.7332 55.1437 67.7795 53.6051C67.7453 52.1812 67.9646 50.7623 68.4252 49.4166C68.8024 48.3441 69.4099 47.3691 70.2045 46.5637C70.9579 45.8244 71.8681 45.2698 72.8659 44.9428C73.9281 44.5965 75.0395 44.4238 76.1559 44.433Z" fill="white"/>
<path fill-rule="evenodd" clip-rule="evenodd" d="M88.7862 38.2188H93.7921V44.7482H98.1694V49.1459H93.7921V57.2048C93.7619 57.4547 93.9068 57.6934 94.1411 57.7787C94.5002 57.8782 94.8714 57.9198 95.2425 57.9026H98.0115V62.3287H95.68C94.7376 62.3337 93.7961 62.287 92.8587 62.1885C92.1044 62.1174 91.3691 61.9112 90.6862 61.5802C90.0937 61.2765 89.6049 60.7981 89.2851 60.2101C88.9169 59.4545 88.7439 58.6166 88.7842 57.7746V49.1469H86.2324V44.7482H88.7862V38.2188Z" fill="white"/>
<path fill-rule="evenodd" clip-rule="evenodd" d="M102.958 38.2188H107.964V44.7482H112.341V49.1459H107.964V57.2048C107.934 57.4547 108.079 57.6934 108.313 57.7787C108.672 57.8782 109.043 57.9198 109.414 57.9026H112.183V62.3287H109.853C108.91 62.3337 107.969 62.287 107.032 62.1885C106.277 62.1174 105.542 61.9112 104.859 61.5802C104.267 61.2765 103.778 60.7981 103.458 60.2101C103.089 59.4545 102.917 58.6166 102.957 57.7746V49.1469H100.404V44.7482H102.958V38.2188Z" fill="white"/>
<path fill-rule="evenodd" clip-rule="evenodd" d="M123.521 48.7006C122.73 48.6326 121.942 48.8398 121.285 49.2897C120.778 49.7569 120.435 50.3764 120.306 51.0579H126.667C126.588 50.3246 126.182 49.6675 125.567 49.2714C124.952 48.8895 124.242 48.6905 123.521 48.7006ZM123.393 44.433C124.402 44.433 125.406 44.5823 126.372 44.8778C127.323 45.1632 128.21 45.6334 128.983 46.2641C129.766 46.9111 130.406 47.7195 130.858 48.6366C131.362 49.6969 131.61 50.8649 131.581 52.041V55.0056H120.089C120.132 55.9644 120.442 56.8906 120.984 57.6798C121.651 58.3521 122.586 58.6812 123.522 58.5715C124.284 58.5948 125.039 58.4141 125.711 58.0484C126.349 57.6178 126.695 56.8612 126.606 56.0893H131.459C131.498 57.2055 131.254 58.3135 130.75 59.3058C130.304 60.1244 129.666 60.8191 128.891 61.3269C128.095 61.8377 127.212 62.1932 126.288 62.378C125.336 62.5802 124.364 62.6817 123.391 62.6817C122.283 62.6878 121.178 62.5598 120.1 62.2998C119.116 62.0622 118.201 61.5869 117.439 60.9145C116.626 60.1559 116.014 59.2032 115.66 58.1429C115.186 56.6794 114.968 55.1437 115.014 53.6051C114.98 52.1812 115.199 50.7623 115.66 49.4166C116.038 48.3441 116.645 47.3701 117.439 46.5637C118.192 45.8244 119.102 45.2698 120.1 44.9428C121.163 44.5965 122.275 44.4238 123.393 44.433Z" fill="white"/>
<path fill-rule="evenodd" clip-rule="evenodd" d="M143.046 49.1461C141.996 49.0933 140.977 49.5199 140.272 50.309C139.544 51.2688 139.188 52.4642 139.272 53.6697V62.3655H134.266V44.4326H139.272V45.7996C140.429 45.0105 141.813 44.6317 143.208 44.72H147.364V49.1461H143.046Z" fill="white"/>
<path fill-rule="evenodd" clip-rule="evenodd" d="M149.561 60.2876C149.57 58.0435 151.38 56.2329 153.601 56.2422C155.824 56.2515 157.616 58.0775 157.607 60.3217C157.598 62.5659 155.788 64.378 153.567 64.3671C152.506 64.3625 151.49 63.935 150.741 63.1777C149.971 62.4188 149.544 61.3733 149.561 60.2876Z" fill="white"/>
</svg>
